<svg preserveAspectRatio="none" overflow="visible" style="display: block;" width="13.7497" height="16.2502" viewBox="0 0 13.7497 16.2502" fill="none" xmlns="http://www.w3.org/2000/svg">
<g id="Location">
<path id="Fill 1" fill-rule="evenodd" clip-rule="evenodd" d="M6.8755 5.41683C6.07133 5.41683 5.41716 6.071 5.41716 6.876C5.41716 7.68016 6.07133 8.3335 6.8755 8.3335C7.67967 8.3335 8.33383 7.68016 8.33383 6.876C8.33383 6.071 7.67967 5.41683 6.8755 5.41683M6.8755 9.5835C5.38216 9.5835 4.16716 8.36933 4.16716 6.876C4.16716 5.38183 5.38216 4.16683 6.8755 4.16683C8.36883 4.16683 9.58383 5.38183 9.58383 6.876C9.58383 8.36933 8.36883 9.5835 6.8755 9.5835" fill="#B39463"/>
<g id="Group 5">
<mask id="mask0_0_176" style="mask-type:luminance" maskUnits="userSpaceOnUse" x="0" y="0" width="14" height="17">
<path id="Clip 4" fill-rule="evenodd" clip-rule="evenodd" d="M8.13603e-05 0.00016275H13.7497V16.2502H8.13603e-05V0.00016275Z" fill="white"/>
</mask>
<g mask="url(#mask0_0_176)">
<path id="Fill 3" fill-rule="evenodd" clip-rule="evenodd" d="M6.87466 1.25016C3.773 1.25016 1.24966 3.79766 1.24966 6.92766C1.24966 10.9102 5.93633 14.7902 6.87466 14.9968C7.813 14.7893 12.4997 10.9093 12.4997 6.92766C12.4997 3.79766 9.97633 1.25016 6.87466 1.25016V1.25016ZM6.87466 16.2502C5.37966 16.2502 -0.000335276 11.6235 -0.000335276 6.92766C-0.000335276 3.10766 3.08383 0.00016275 6.87466 0.00016275C10.6655 0.00016275 13.7497 3.10766 13.7497 6.92766C13.7497 11.6235 8.36966 16.2502 6.87466 16.2502V16.2502Z" fill="#B39463"/>
</g>
</g>
</g>
</svg>
